<?xml version="1.0" encoding="UTF-8" standalone="no"?>
   <svg id="hello" xmlns="http://www.w3.org/2000/svg" height="420px" width="1800px" viewBox="0 0 1200 420">
                <defs>
                        <linearGradient id="animated-gradient" x1="-100%" y1="0%" x2="200%" y2="0%" gradientUnits="userSpaceOnUse">
                                <stop offset="0%" stop-color="violet" />
                                <stop offset="14.28%" stop-color="red" />
                                <stop offset="28.57%" stop-color="orange" />
                                <stop offset="42.85%" stop-color="yellow" />
                                <stop offset="57.14%" stop-color="green" />
                                <stop offset="71.42%" stop-color="blue" />
                                <stop offset="85.71%" stop-color="indigo" />
                                <stop offset="100%" stop-color="violet" />
                                
                                
                    
                                <animateTransform 
                                    attributeName="gradientTransform"
                                    type="translate"
                                    from="-2500"
                                    to="2500"
                                    begin="0s"
                                    dur="23s"
                                    repeatCount="indefinite"
                                    fill="freeze"
                                    />
                            </linearGradient>
                            <filter id="inner-shadow" x="-50%" y="-50%" width="200%" height="200%">
                                <feComponentTransfer in="SourceAlpha">
                                  <feFuncA type="table" tableValues="1 0" />
                                </feComponentTransfer>
                                <feGaussianBlur stdDeviation="4"/>
                                <feOffset dx="0" dy="5" result="offsetblur"/>
                                <feFlood flood-color="rgb(0, 0, 0)" result="color"/>
                                <feComposite in2="offsetblur" operator="in"/>
                                <feComposite in2="SourceAlpha" operator="in" />
                                <feMerge>
                                  <feMergeNode in="SourceGraphic" />
                                  <feMergeNode />
                                </feMerge>
                              </filter>
                </defs>
                <path class="animated-path" id="path1" fill="url(#animated-gradient)" 
                        d="m 94.894964,403.52236 c -7.595616,-3.30253 -9.303848,-51.82794 -3.036724,-86.26299 1.692782,-9.30115 -1.479179,-9.20037 -15.003111,0.47669 -44.770735,32.03576 -59.968951,38.67536 -69.2672244,30.26053 -9.0860643,-8.22278 -6.0700511,-18.33751 7.8813134,-26.4313 26.481745,-15.3632 74.037402,-49.75204 78.653653,-56.87668 1.043438,-1.61041 2.715875,-14.93556 3.716533,-29.61145 7.195906,-105.53621 19.534376,-175.958025 35.094116,-200.299612 31.77432,-49.70766 102.26056,-37.6889123 112.98186,19.264756 6.09344,32.369512 -9.66652,88.691086 -35.42467,126.597586 -5.59872,8.23927 -5.22874,8.74778 7.40457,10.17707 28.3329,3.20551 49.95471,24.65666 53.8981,53.47269 1.78208,13.02247 1.73138,13.6363 -5.17607,62.65467 -6.73205,47.77362 -4.88005,56.02896 13.98389,62.33355 13.89784,4.64484 51.16676,0.36201 77.68787,-8.92764 14.03509,-4.91613 13.97275,-4.71728 7.11988,-22.70805 -30.83224,-80.94364 29.26362,-175.96844 98.42118,-155.6256 66.34157,19.51452 47.95258,122.27219 -31.07698,173.65814 -11.05324,7.18694 -11.16033,7.92794 -1.74185,12.05184 42.22177,18.48683 100.56089,1.51755 153.4535,-44.63546 13.67006,-11.92821 13.67006,-11.92821 14.07746,-64.18371 C 599.72377,107.36129 642.25001,4.9184951 704.0861,4.6594821 787.34395,4.3107463 754.21355,174.7692 646.13406,302.82715 c -13.54616,16.05014 -13.54616,16.05014 -11.69619,24.30499 14.05274,62.70615 85.09728,61.45841 151.88637,-2.66754 11.73303,-11.26519 11.73303,-11.26519 10.63272,-36.68609 -5.69971,-131.68393 41.99318,-270.647452 96.88536,-282.2963696 69.36367,-14.7199562 75.57051,87.5402576 12.31604,202.9116096 -2.62625,4.79008 -8.14043,14.97991 -12.25374,22.64404 -13.27533,24.73539 -51.84724,80.37455 -60.67731,87.52574 -10.85414,8.79043 15.27218,49.80968 34.69259,54.46855 43.68227,10.47921 85.31778,-24.45169 113.19171,-94.96434 33.91269,-85.78868 85.05799,-117.70345 145.21929,-90.61708 4.8528,2.18489 12.7425,5.67572 17.5326,7.7574 4.79,2.08167 14.3149,7.65731 21.1664,12.39032 37.309,25.77315 60.8958,22.38171 77.0969,-11.08538 11.6822,-24.13221 41.1639,-12.44135 29.9605,11.88075 -17.3599,37.68746 -55.1542,55.28391 -92.0255,42.8456 -5.9574,-2.00969 -11.1974,-3.65398 -11.6444,-3.65398 -0.447,0 -0.3637,6.93199 0.1853,15.4044 4.881,75.34017 -45.2964,139.45637 -109.219,139.55881 -36.2876,0.0582 -59.773,-18.24262 -69.63234,-54.26042 -2.79413,-10.20743 -2.79413,-10.20743 -11.01772,0.99254 -50.28284,68.48179 -137.14512,74.70683 -166.89999,11.96102 -5.98825,-12.62776 -5.98825,-12.62776 -19.00257,-1.98107 -74.85928,61.24048 -153.54385,59.02624 -181.12897,-5.09712 -4.73494,-11.00663 -3.92294,-10.99872 -17.41613,-0.16966 -68.08019,54.63795 -147.81316,66.91252 -195.98388,30.17093 -6.16547,-4.70265 -6.16547,-4.70265 -17.8637,-0.16547 -58.13914,22.54962 -110.94907,22.51267 -133.15672,-0.0932 -17.86338,-18.18368 -19.38341,-31.71073 -10.13142,-90.16176 5.20448,-32.88009 5.66438,-38.86557 3.69274,-48.059 -3.87485,-18.06781 -13.95896,-26.0938 -33.01028,-26.27307 -46.02008,-0.43303 -81.18537,63.1856 -88.26486,159.68271 -1.34956,18.39523 -2.56004,21.23774 -10.44759,24.53337 -7.09181,2.96315 -7.1677,2.96257 -14.225306,-0.10608 z M 1085.8343,366.3679 c 43.4656,-21.64724 65.5894,-90.61823 43.1663,-134.57106 -18.2778,-35.82748 -77.3284,-14.58346 -99.566,35.8198 -30.79592,69.80151 1.3862,126.14973 56.3997,98.75126 z M 413.68838,332.61827 c 52.60817,-35.51655 77.52349,-93.81571 49.9939,-116.98033 -38.39599,-32.30809 -92.37581,49.72588 -70.88032,107.7179 7.37022,19.88385 6.03241,19.29057 20.88642,9.26243 z m 229.10497,-74.5818 c 4.4043,-6.22711 8.47432,-11.71394 9.04448,-12.19295 0.57018,-0.47901 4.05245,-5.96584 7.7384,-12.19295 3.68596,-6.22711 7.69133,-12.49777 8.90083,-13.9348 41.86305,-49.7381 66.8898,-183.937338 34.25861,-183.702536 -36.50852,0.262706 -69.42081,94.084936 -74.52378,212.443056 -1.38075,32.02501 -1.32108,32.06422 14.58146,9.58018 z m 195.24593,4.74854 C 911.00274,160.22911 948.76713,11.82136 895.27342,37.864472 863.30277,53.429208 828.01084,170.10379 827.75338,261.08471 c -0.0434,15.31736 0.53055,15.41223 10.2859,1.7003 z M 157.73577,199.6845 c 59.14316,-70.75797 79.16102,-160.272272 36.8194,-164.646127 -37.57679,-3.881661 -50.17997,32.349568 -62.72602,180.322777 -1.40817,16.60843 -0.74196,16.2053 25.90662,-15.67665 z"
                        transform="translate(50%, 40px)">
                </path>
        </svg>
